# xmcd CD database file
# Copyright (C) 1996 Ti Kan
#
# Track frame offsets:
# 	150
# 	8002
# 	16832
# 	23412
# 	36607
# 	50075
# 	58382
# 	67675
# 	75485
# 	87150
#
# Disc length: 1324 seconds
#
# Revision: 1
# Processed by: cddbd v1.4b41PL1 Copyright (c) Steve Scherf et al.
# Submitted via: DiscPlay 3.4.1
#
DISCID=70052a0a
DTITLE=Gene Autry - Greatest Hits
DYEAR=1900
DGENRE=
TTITLE0=(Alla En) El Rancho Grande (My Ranch)
TTITLE1=In A Little Spanish Town
TTITLE2=My Adobe Hacienda
TTITLE3=Under Fiesta Stars
TTITLE4=Mexicali Rose
TTITLE5=A Gay Ranchero
TTITLE6=It Happened In Monterey
TTITLE7=Rancho Pillow
TTITLE8=Vaya Con Dios (May God Be With You)
TTITLE9=South Of The Border
EXTD=
EXTT0=
EXTT1=
EXTT2=
EXTT3=
EXTT4=
EXTT5=
EXTT6=
EXTT7=
EXTT8=
EXTT9=
PLAYORDER=
